<svg width="24" height="24" viewBox="0 0 24 24" fill="none" xmlns="http://www.w3.org/2000/svg">
<path fill-rule="evenodd" clip-rule="evenodd" d="M10.753 2.19713C10.4792 2.10575 10.189 2.07471 9.90207 2.10612C9.61518 2.13754 9.33849 2.23067 9.091 2.37913L4.971 4.85113C4.67485 5.02882 4.42976 5.28018 4.25959 5.58072C4.08943 5.88127 4 6.22075 4 6.56613V20.0001H3C2.73478 20.0001 2.48043 20.1055 2.29289 20.293C2.10536 20.4806 2 20.7349 2 21.0001C2 21.2653 2.10536 21.5197 2.29289 21.7072C2.48043 21.8948 2.73478 22.0001 3 22.0001H21C21.2652 22.0001 21.5196 21.8948 21.7071 21.7072C21.8946 21.5197 22 21.2653 22 21.0001C22 20.7349 21.8946 20.4806 21.7071 20.293C21.5196 20.1055 21.2652 20.0001 21 20.0001H20V6.72013C19.9998 6.30066 19.8676 5.89189 19.6223 5.55164C19.377 5.21139 19.0309 4.95689 18.633 4.82413L10.753 2.19713ZM9 4.76713L6 6.56713V20.0001H9V4.76613V4.76713Z" fill="#F0F9F4"/>
</svg>
