<svg width="24" height="24" viewBox="0 0 24 24" fill="none" xmlns="http://www.w3.org/2000/svg">
<g clip-path="url(#clip0_180_2362)">
<path d="M17.9912 13.3337C17.9912 15.1693 17.9912 17.0049 17.9912 18.8405C17.9912 19.8234 17.5911 20.2246 16.6217 20.2275C16.2369 20.2275 15.8522 20.2148 15.4675 20.2275C15.2165 20.2392 15.128 20.1474 15.1367 19.8917C15.1511 19.4037 15.1367 18.9157 15.1367 18.4277C15.1367 15.3248 15.1319 12.223 15.1434 9.12017C15.1514 8.96079 15.1247 8.80157 15.065 8.65393C15.0053 8.50628 14.9142 8.37386 14.7981 8.26614C13.7774 7.25691 12.77 6.23532 11.7762 5.20137C11.6694 5.08313 11.5381 4.99038 11.3918 4.92979C11.2454 4.8692 11.0877 4.84229 10.9298 4.85098C9.42465 4.86464 7.92042 4.84219 6.4162 4.86562C5.98532 4.87245 5.96127 4.71531 6.11708 4.39614C6.30367 4.01549 6.61432 3.78221 7.02693 3.78026C9.41215 3.7666 11.7964 3.77538 14.1816 3.76465C14.4567 3.76465 14.4432 3.91593 14.4423 4.10333C14.4423 4.72116 14.4423 5.33802 14.4423 5.9578C14.4423 6.98557 14.8106 7.35159 15.8378 7.35354C16.4149 7.35354 16.9919 7.37306 17.569 7.34573C17.9037 7.33011 17.9999 7.43065 17.997 7.77519C17.9826 9.63064 17.9912 11.4822 17.9912 13.3337Z" fill="#045754"/>
<path d="M21.493 11.6335C21.493 13.4528 21.493 15.2731 21.493 17.0925C21.493 18.0685 21.1497 18.4082 20.1927 18.415C19.808 18.415 19.4233 18.3965 19.0386 18.4209C18.75 18.4404 18.6606 18.3525 18.6635 18.047C18.6798 16.4707 18.6712 14.8954 18.6712 13.3191C18.6712 11.3202 18.6654 9.32224 18.6779 7.32429C18.6845 7.1723 18.6581 7.02071 18.6006 6.88021C18.5431 6.73972 18.4559 6.61376 18.3451 6.51125C17.3276 5.50007 16.3206 4.47783 15.3242 3.44454C15.2147 3.3192 15.0788 3.22037 14.9267 3.15534C14.7746 3.09031 14.61 3.06073 14.4451 3.06876C12.9409 3.08926 11.4357 3.06193 9.9305 3.08731C9.4727 3.09512 9.49482 2.91064 9.64197 2.6071C9.72601 2.42092 9.86289 2.26443 10.0351 2.15767C10.2073 2.0509 10.407 1.99873 10.6086 2.00781C12.962 2.00293 15.3155 2.00781 17.669 2C17.9171 2 17.9999 2.06344 17.9931 2.32502C17.9758 3.00825 17.9825 3.69148 17.9931 4.3747C18.0008 5.16139 18.3913 5.5684 19.1761 5.58792C19.8003 5.60353 20.4264 5.61329 21.0487 5.58304C21.4026 5.56547 21.5046 5.65819 21.5007 6.03104C21.4796 7.89917 21.4911 9.76829 21.4911 11.6364L21.493 11.6335Z" fill="#045754"/>
<path d="M15.1416 4.35498L17.3777 6.64379C16.7612 6.64379 16.1621 6.65258 15.5638 6.64379C15.2753 6.63793 15.1416 6.44858 15.1416 6.1626V4.35498Z" fill="#033B38"/>
<path d="M13.6969 8.44073C13.243 8.44073 12.6563 8.44073 12.0696 8.44073C11.7714 8.44073 11.6406 8.27383 11.6416 7.97907C11.6416 7.39345 11.6416 6.81368 11.6416 6.27979L13.6969 8.44073Z" fill="#033B38"/>
<path d="M20.7599 4.86065C20.2704 4.86065 19.6827 4.86065 19.0951 4.86065C18.7988 4.86065 18.669 4.68789 18.6709 4.39313C18.6709 3.80751 18.6709 3.22189 18.6709 2.6958L20.7599 4.86065Z" fill="#033B38"/>
<path d="M14.1019 9.13193C13.446 9.15145 12.79 9.14267 12.1331 9.13681C11.3637 9.13096 10.953 8.72785 10.9328 7.94409C10.9174 7.31064 10.9097 6.67524 10.9328 6.04375C10.9482 5.69335 10.8722 5.57525 10.4952 5.57818C8.2706 5.59867 6.04504 5.58696 3.82044 5.58989C2.83173 5.58989 2.4951 5.93248 2.49414 6.93292C2.49414 9.20709 2.49414 11.4813 2.49414 13.7554C2.49414 16.0979 2.49414 18.4346 2.49414 20.7741C2.49414 21.5813 2.8952 21.9961 3.65597 21.9971C6.87281 22.001 10.0903 22.001 13.3084 21.9971C14.0086 21.9971 14.4337 21.5813 14.4347 20.8912C14.4404 17.0847 14.4347 13.2879 14.4433 9.48624C14.4539 9.21099 14.3798 9.12413 14.1019 9.13193ZM10.953 14.8574C11.2473 14.834 11.2694 14.9735 11.2858 15.2224C11.3079 15.566 11.1329 15.5572 10.8847 15.5718C10.551 15.5923 10.577 15.3932 10.5962 15.1678C10.5221 14.8427 10.7356 14.8779 10.9569 14.8574H10.953ZM10.9376 13.4285C10.6808 13.4431 10.5702 13.3826 10.5818 13.0907C10.5914 12.8419 10.6116 12.712 10.9126 12.7218C11.6307 12.7452 12.3495 12.7452 13.0689 12.7218C13.3671 12.713 13.394 12.837 13.4017 13.0888C13.4113 13.3816 13.3055 13.4441 13.0468 13.4285C12.6967 13.408 12.3437 13.4285 11.9889 13.4285C11.634 13.4285 11.2925 13.4138 10.9415 13.4285H10.9376ZM12.2649 14.8613C12.4717 14.8798 12.6823 14.8476 12.8881 14.8691C13.0939 14.8906 13.3969 14.709 13.4094 15.1853C13.4219 15.6616 13.1497 15.5611 12.892 15.563H12.6996C12.5553 15.563 12.4111 15.5513 12.2678 15.563C11.9562 15.5953 12.0014 15.3796 11.9927 15.1863C11.984 14.993 12.0062 14.8369 12.2687 14.8613H12.2649ZM7.52618 10.5833C8.43924 10.5833 9.35132 10.5833 10.2625 10.5833C11.1752 10.5833 12.0898 10.5833 12.9997 10.5833C13.2334 10.5833 13.4094 10.556 13.4123 10.9161C13.4152 11.2763 13.244 11.2841 12.9795 11.2831C11.1521 11.2763 9.33145 11.2831 7.50695 11.2782C7.28093 11.2782 7.04818 11.3612 7.03856 10.9454C7.02894 10.4935 7.28574 10.5833 7.52618 10.5833ZM9.41224 13.4265C9.33241 13.4265 9.25258 13.4265 9.17275 13.4265C9.06063 13.4202 8.94825 13.4202 8.83613 13.4265C8.5803 13.4577 8.46681 13.3826 8.47642 13.0888C8.48412 12.8321 8.52259 12.6906 8.81497 12.7247C9.00733 12.7462 9.19968 12.7199 9.39204 12.7306C9.61998 12.7433 9.90082 12.6086 9.90852 13.0673C9.91621 13.5261 9.65268 13.4138 9.41224 13.4245V13.4265ZM9.90563 15.2253C9.90563 15.6343 9.67096 15.565 9.43821 15.565H7.52618C7.27804 15.565 7.03664 15.6353 7.03856 15.2019C7.03856 14.7861 7.27516 14.8681 7.50118 14.8671C8.15423 14.8671 8.80824 14.8671 9.46129 14.8671C9.71327 14.8603 9.90852 14.8369 9.90563 15.2234V15.2253ZM6.04312 10.5735C6.32588 10.5599 6.42013 10.6643 6.36243 10.9347C6.42687 11.2226 6.29126 11.2734 6.03061 11.288C5.71034 11.3056 5.68341 11.167 5.67187 10.8976C5.6584 10.5765 5.81229 10.5833 6.04312 10.5716V10.5735ZM3.79928 10.5784C4.02145 10.596 4.24651 10.5784 4.47253 10.5833C4.69855 10.5882 4.97073 10.474 4.97169 10.9259C4.97265 11.3778 4.71393 11.2704 4.47541 11.2763C4.39558 11.2763 4.31576 11.2763 4.23593 11.2763C4.09166 11.2763 3.94739 11.2656 3.80505 11.2763C3.51652 11.3026 3.5598 11.0996 3.5598 10.9259C3.5598 10.7522 3.5069 10.554 3.79928 10.5765V10.5784ZM3.55306 13.0878C3.55306 12.877 3.54537 12.7208 3.8416 12.7247C5.03998 12.7403 6.23932 12.7403 7.43962 12.7247C7.7397 12.7199 7.76951 12.8506 7.77432 13.0995C7.77913 13.3484 7.70796 13.4392 7.45116 13.4314C6.85967 13.4138 6.26817 13.4255 5.67571 13.4255C5.06883 13.4255 4.46002 13.4089 3.85314 13.4324C3.57134 13.4421 3.54825 13.3104 3.55306 13.0859V13.0878ZM3.90796 14.8623C4.2744 14.8798 4.64276 14.8671 5.01016 14.8671C5.36121 14.8671 5.71419 14.8837 6.06812 14.8613C6.33646 14.8437 6.37974 14.9589 6.37974 15.2C6.37974 15.441 6.348 15.5816 6.04889 15.5718C5.33012 15.5504 4.61134 15.5504 3.89257 15.5718C3.60404 15.5796 3.5598 15.4596 3.55114 15.2029C3.53864 14.9101 3.65213 14.8476 3.907 14.8603L3.90796 14.8623ZM6.12775 19.8557C5.74304 19.841 5.35833 19.8557 4.97361 19.8557C4.5889 19.8557 4.20419 19.842 3.81948 19.8605C3.50882 19.8762 3.55402 19.6722 3.54537 19.4789C3.53671 19.2857 3.55595 19.1432 3.81755 19.148C4.58313 19.163 5.34967 19.163 6.11717 19.148C6.40571 19.148 6.36147 19.3276 6.35954 19.5014C6.35762 19.6751 6.41917 19.8664 6.12775 19.8557ZM5.65263 17.7084C5.06017 17.7084 4.46675 17.6908 3.87622 17.7152C3.57326 17.7279 3.5521 17.5903 3.54922 17.3433C3.54633 17.0964 3.60885 17.0086 3.86756 17.0115C5.06787 17.0242 6.27202 17.0261 7.46848 17.0115C7.74739 17.0115 7.77817 17.1296 7.77336 17.3599C7.76855 17.5903 7.76759 17.7259 7.47617 17.7162C6.86929 17.6947 6.26048 17.7084 5.65263 17.7084ZM9.58151 19.8557C9.217 19.8352 8.8496 19.8508 8.48316 19.8508C8.11672 19.8508 7.74932 19.8322 7.3848 19.8566C7.09627 19.8752 7.04433 19.7444 7.04818 19.4877C7.04818 19.2544 7.08569 19.1353 7.35691 19.1412C8.10518 19.1588 8.85376 19.1588 9.60267 19.1412C9.8912 19.1344 9.8912 19.2954 9.8912 19.5072C9.90082 19.7415 9.85466 19.8723 9.58151 19.8557ZM10.3298 17.7133C10.0605 17.6928 9.78926 17.7133 9.51803 17.7133C9.31125 17.7133 9.10447 17.7025 8.89865 17.7133C8.63031 17.7308 8.46777 17.7133 8.47162 17.3453C8.47546 16.9773 8.66397 17.0154 8.88903 17.0173C9.36992 17.0222 9.84408 17.033 10.3202 17.0173C10.5808 17.0066 10.6087 17.1335 10.5923 17.3404C10.5789 17.52 10.652 17.7396 10.3298 17.7142V17.7133ZM10.9251 19.8605C10.6635 19.8459 10.5173 19.8 10.6058 19.5277C10.5443 19.2349 10.6347 19.1266 10.9193 19.1373C11.1598 19.1471 11.2983 19.1617 11.2896 19.4692C11.2829 19.7503 11.2396 19.8801 10.928 19.8615L10.9251 19.8605ZM11.2704 17.3716C11.2704 17.0437 11.3974 17.0037 11.6647 17.0134C12.1456 17.03 12.6265 17.0359 13.1074 17.0134C13.3911 16.9988 13.4181 17.1325 13.4046 17.358C13.3931 17.5532 13.4411 17.7552 13.1228 17.7172C12.8667 17.7 12.6097 17.698 12.3534 17.7113C12.1293 17.7113 11.9052 17.7025 11.6801 17.7113C11.4368 17.724 11.2666 17.726 11.2704 17.3726V17.3716ZM12.6977 19.8557C12.3841 19.801 11.8513 20.0353 12.0148 19.3989C12.1552 18.8484 12.6506 19.2515 12.9766 19.1588C13.1238 19.1168 13.3786 19.0212 13.4123 19.3989C13.4719 20.1202 12.9477 19.7581 12.6977 19.8557Z" fill="#045754"/>
</g>
<defs>
<clipPath id="clip0_180_2362">
<rect width="19" height="20" fill="white" transform="translate(2.5 2)"/>
</clipPath>
</defs>
</svg>
