<svg width="24" height="24" viewBox="0 0 24 24" fill="none" xmlns="http://www.w3.org/2000/svg">
<path d="M16.7611 10.4972C17.2539 10.4986 17.742 10.4021 18.1973 10.2135C18.6525 10.0249 19.0658 9.74789 19.4133 9.39845L23.0227 5.79142C23.3081 5.50595 23.3344 5.04142 23.0625 4.74189C22.9943 4.66663 22.9114 4.60603 22.819 4.56376C22.7267 4.52148 22.6267 4.49842 22.5251 4.49596C22.4235 4.49351 22.3225 4.51171 22.2282 4.54948C22.1339 4.58724 22.0482 4.64377 21.9764 4.71564L18.7594 7.93032C18.6514 8.03821 18.5049 8.09881 18.3523 8.09881C18.1996 8.09881 18.0532 8.03821 17.9452 7.93032C17.7206 7.70626 17.7328 7.32751 17.9569 7.10345L21.1599 3.90048C21.2317 3.82868 21.2881 3.74305 21.3258 3.64877C21.3636 3.5545 21.3817 3.45355 21.3793 3.35204C21.3768 3.25054 21.3538 3.15058 21.3116 3.05824C21.2693 2.96591 21.2088 2.8831 21.1336 2.81485C20.9979 2.69174 20.8209 2.624 20.6377 2.62501C20.5348 2.62506 20.433 2.64536 20.338 2.68478C20.243 2.72419 20.1567 2.78193 20.0841 2.8547L16.8839 6.05439C16.7759 6.16227 16.6295 6.22287 16.4768 6.22287C16.3241 6.22287 16.1777 6.16227 16.0697 6.05439C15.8456 5.83032 15.8574 5.45157 16.0814 5.22751L19.2844 2.02548C19.3562 1.95368 19.4127 1.86805 19.4504 1.77377C19.4881 1.6795 19.5063 1.57855 19.5038 1.47704C19.5014 1.37554 19.4783 1.27558 19.4361 1.18324C19.3939 1.09091 19.3333 1.0081 19.2581 0.939855C19.1224 0.816743 18.9454 0.749003 18.7622 0.750011C18.5545 0.750257 18.3554 0.832859 18.2086 0.979699L14.6016 4.58673C14.2521 4.93426 13.9751 5.34766 13.7865 5.80299C13.5979 6.25832 13.5015 6.74654 13.5028 7.23939V7.62517C13.5029 7.7238 13.4835 7.82148 13.4458 7.91261C13.4081 8.00374 13.3527 8.08654 13.283 8.15626L11.6138 9.82595C11.5964 9.84338 11.5757 9.85721 11.5529 9.86665C11.5301 9.87608 11.5057 9.88094 11.4811 9.88094C11.4565 9.88094 11.4321 9.87608 11.4093 9.86665C11.3865 9.85721 11.3659 9.84338 11.3485 9.82595L3.22595 1.70298C3.08576 1.56263 2.89568 1.48354 2.69732 1.48301C2.49895 1.48248 2.30845 1.56057 2.16752 1.70017C1.45736 2.40376 1.07814 3.39704 1.07814 4.5722C1.07345 6.51282 2.09345 8.74407 3.74017 10.3884L7.74564 14.3939C8.31497 14.962 9.08636 15.2811 9.89064 15.2813C10.147 15.2814 10.4024 15.2486 10.6505 15.1838C10.7128 15.1674 10.7769 15.1591 10.8413 15.1589C11.0295 15.1589 11.2109 15.2301 11.3489 15.3581L11.8828 15.8513C12.0205 15.9919 12.0979 16.1808 12.0985 16.3777V16.6374C12.0971 17.2277 12.3291 17.7947 12.7439 18.2147L16.965 22.507L16.9692 22.5117C17.4377 22.9802 18.0731 23.2433 18.7356 23.2433C19.3982 23.2432 20.0335 22.98 20.502 22.5115C20.9704 22.043 21.2335 21.4076 21.2335 20.7451C21.2335 20.0826 20.9702 19.4472 20.5017 18.9788L14.1745 12.6516C14.1571 12.6342 14.1433 12.6135 14.1338 12.5907C14.1244 12.568 14.1196 12.5436 14.1196 12.5189C14.1196 12.4943 14.1244 12.4699 14.1338 12.4471C14.1433 12.4244 14.1571 12.4037 14.1745 12.3863L15.8438 10.717C15.9134 10.6473 15.9961 10.592 16.0872 10.5543C16.1782 10.5166 16.2758 10.4972 16.3744 10.4972H16.7611Z" fill="#F0F9F4"/>
<path d="M9.89027 16.7812C8.6895 16.7787 7.53811 16.3029 6.6859 15.457L6.03621 14.8073C5.96591 14.7371 5.87067 14.6978 5.77137 14.6978C5.67207 14.6978 5.57682 14.7371 5.50652 14.8073L1.52215 18.771C0.811992 19.4812 0.558398 20.5265 0.90996 21.5502C0.92968 21.6079 0.953008 21.6643 0.979804 21.719C1.45277 22.6874 2.37059 23.2499 3.37465 23.2499C3.71995 23.2508 4.06198 23.1831 4.38094 23.0508C4.69989 22.9185 4.98943 22.7243 5.23277 22.4793L10.5465 17.1402C10.5689 17.1174 10.586 17.09 10.5967 17.0599C10.6074 17.0298 10.6114 16.9977 10.6084 16.9659V16.9537C10.6063 16.9244 10.5983 16.8959 10.5849 16.8699C10.5715 16.8438 10.553 16.8207 10.5304 16.802C10.5079 16.7833 10.4818 16.7694 10.4537 16.7611C10.4256 16.7527 10.3961 16.7502 10.367 16.7535C10.2087 16.7711 10.0496 16.7803 9.89027 16.7812Z" fill="#F0F9F4"/>
</svg>
