<svg width="24" height="24" viewBox="0 0 24 24" fill="none" xmlns="http://www.w3.org/2000/svg">
<g clip-path="url(#clip0_180_2375)">
<path d="M9.20182 16.9464C9.20182 15.9193 9.19597 14.8913 9.20182 13.8643C9.2106 12.7627 9.95022 11.9917 11.0489 11.9505C11.6812 11.926 12.3174 11.926 12.9468 11.9505C14.0464 11.9917 14.788 12.7627 14.7919 13.8653C14.7997 15.9363 14.7997 18.0077 14.7919 20.0794C14.7919 21.1986 14.0035 21.9824 12.897 21.9942C12.2966 22.0007 11.6965 22.0007 11.0967 21.9942C9.99023 21.9824 9.21743 21.1977 9.20084 20.0784C9.20084 20.0461 9.20084 20.0127 9.20084 19.9803L9.20182 16.9464Z" fill="#045754"/>
<path d="M2.00488 18.2321C2.00488 17.5965 1.9961 16.9569 2.00488 16.3242C2.00767 15.83 2.20361 15.3567 2.55044 15.0063C2.89727 14.656 3.36718 14.4568 3.85881 14.4517C4.47451 14.437 5.09119 14.4419 5.70688 14.4517C6.77143 14.4654 7.60472 15.2443 7.63205 16.3154C7.66522 17.5857 7.66327 18.8589 7.63205 20.1302C7.60668 21.2092 6.78899 21.9842 5.71762 21.994C5.11721 22.0005 4.51712 22.0005 3.91736 21.994C2.79329 21.9832 2.00878 21.1837 2.00098 20.0419C2.00098 19.4387 2.00488 18.8354 2.00488 18.2321Z" fill="#045754"/>
<path d="M21.9943 18.2282C21.9943 18.8639 22.0041 19.5034 21.9943 20.1361C21.9934 20.381 21.9445 20.6234 21.8504 20.8493C21.7563 21.0752 21.6188 21.2802 21.4458 21.4527C21.2728 21.6251 21.0677 21.7616 20.8422 21.8543C20.6167 21.9471 20.3752 21.9942 20.1316 21.993C19.5159 22.0028 18.8992 22.0009 18.2835 21.993C17.2102 21.9812 16.3906 21.2083 16.3652 20.1293C16.3353 18.858 16.3353 17.5864 16.3652 16.3145C16.3916 15.2462 17.2258 14.4625 18.2874 14.4507C18.8872 14.4429 19.4873 14.4429 20.0877 14.4507C21.1815 14.4664 21.9826 15.2737 21.9963 16.3714C22.0002 16.9893 21.9943 17.6063 21.9943 18.2282Z" fill="#045754"/>
<path d="M9.36629 4.72108C9.78683 4.72108 10.3128 4.87509 10.5996 4.67792C10.8865 4.48075 10.9187 3.93634 11.0514 3.54005C11.1656 3.20065 11.2573 2.85341 11.3705 2.51597C11.4681 2.21679 11.6525 2.00098 11.9979 2C12.3433 1.99902 12.5297 2.21385 12.6282 2.51303C12.8322 3.12904 13.038 3.74604 13.2137 4.37089C13.2908 4.64457 13.3981 4.76326 13.7016 4.74953C14.3495 4.72108 14.9993 4.74953 15.6482 4.73874C15.9721 4.73874 16.2336 4.83192 16.3312 5.16642C16.4171 5.47835 16.3175 5.73633 16.0385 5.93056C15.5077 6.30527 14.9935 6.70352 14.4587 7.07038C14.2382 7.22145 14.166 7.35289 14.2714 7.62559C14.4909 8.21414 14.6617 8.83114 14.8568 9.43244C14.9691 9.76988 14.972 10.0848 14.6617 10.3035C14.3514 10.5222 14.0577 10.3918 13.7757 10.176C13.2732 9.79146 12.7473 9.43833 12.2448 9.05283C12.0603 8.91157 11.9345 8.91353 11.75 9.05283C11.2475 9.43735 10.7206 9.79048 10.2181 10.175C9.93613 10.3898 9.65218 10.5272 9.33311 10.3025C8.99648 10.0671 9.02868 9.73751 9.14772 9.38536C9.3497 8.78602 9.51362 8.17196 9.73317 7.57752C9.82099 7.33818 9.75854 7.23126 9.57314 7.10079C9.04233 6.72804 8.53007 6.32685 7.99535 5.95802C7.68409 5.7432 7.55919 5.46756 7.67823 5.1213C7.78947 4.79465 8.07341 4.72893 8.39053 4.73677C8.70765 4.74462 9.03941 4.73677 9.36629 4.73677V4.72108Z" fill="#045754"/>
<path d="M7.2893 10.7967C7.291 10.9041 7.26488 11.0102 7.2135 11.1045C7.16212 11.1987 7.08724 11.2779 6.99622 11.3343C6.9052 11.3907 6.80115 11.4223 6.6943 11.4261C6.58745 11.4299 6.48146 11.4056 6.38673 11.3558C6.16298 11.2235 5.94935 11.0747 5.74761 10.9105C5.20509 10.5102 5.04702 10.5102 4.49572 10.9203C4.31326 11.0556 4.12786 11.1871 3.94052 11.3126C3.83632 11.3831 3.71346 11.4203 3.58791 11.4196C3.46235 11.4188 3.33993 11.3801 3.23656 11.3085C3.13319 11.2368 3.05366 11.1356 3.00832 11.0179C2.96298 10.9002 2.95392 10.7715 2.98233 10.6486C3.04221 10.4122 3.11419 10.1791 3.19797 9.95013C3.41459 9.31254 3.37458 9.17324 2.85158 8.79363C2.65643 8.65041 2.44957 8.51603 2.26613 8.36104C2.04951 8.18153 1.94315 7.94513 2.03975 7.66557C2.07686 7.53776 2.15374 7.42526 2.2591 7.34458C2.36447 7.2639 2.49277 7.21929 2.6252 7.21729C2.90116 7.20306 3.17766 7.20306 3.45362 7.21729C3.88685 7.24279 4.16592 7.08584 4.27228 6.63756C4.34711 6.3714 4.43603 6.10945 4.53866 5.85283C4.63623 5.57915 4.82162 5.42024 5.11533 5.41337C5.43147 5.40553 5.68126 5.55757 5.72712 5.86165C5.89398 6.97794 6.50772 7.41347 7.60837 7.22514C7.90695 7.17511 8.14113 7.3811 8.22798 7.67636C8.31482 7.97161 8.22212 8.25412 7.95086 8.39439C7.01219 8.88485 6.69702 9.55188 7.2571 10.524C7.2757 10.5694 7.28563 10.618 7.28638 10.6672C7.2854 10.7172 7.28735 10.7663 7.2893 10.7967Z" fill="#045754"/>
<path d="M20.3103 11.4268C20.0624 11.4268 19.836 11.163 19.5794 10.9776C18.8964 10.4871 18.832 10.4793 18.1753 10.9687C18.0192 11.0855 17.8572 11.1944 17.6962 11.3052C17.5901 11.38 17.4636 11.4201 17.3339 11.4199C17.2043 11.4197 17.0779 11.3793 16.972 11.3041C16.8661 11.229 16.7859 11.1228 16.7422 11.0001C16.6986 10.8774 16.6937 10.7441 16.7283 10.6186C16.7937 10.3671 16.8748 10.1201 16.9712 9.87894C17.1469 9.4336 17.0552 9.08831 16.6424 8.82935C16.4365 8.69987 16.2521 8.54194 16.0501 8.39971C15.7984 8.21824 15.6881 7.97105 15.7759 7.67579C15.812 7.53954 15.8933 7.41977 16.0064 7.33629C16.1194 7.25281 16.2574 7.21062 16.3975 7.21671C16.6902 7.20887 16.9829 7.20298 17.2757 7.21671C17.6582 7.23339 17.8826 7.05486 17.9909 6.69389C18.0748 6.41432 18.1753 6.13868 18.269 5.86206C18.3666 5.56779 18.5734 5.4079 18.8886 5.41476C19.1813 5.42065 19.4145 5.57367 19.4584 5.85422C19.6292 6.95579 20.2166 7.42369 21.3329 7.22751C21.6334 7.17356 21.8627 7.37955 21.9603 7.6699C22.0144 7.80138 22.0169 7.9486 21.9673 8.08186C21.9176 8.21512 21.8196 8.3245 21.6929 8.38793C20.724 8.8833 20.4732 9.55719 20.9806 10.5646C21.2002 10.9962 20.8645 11.416 20.3103 11.4268Z" fill="#045754"/>
</g>
<defs>
<clipPath id="clip0_180_2375">
<rect width="20" height="20" fill="white" transform="translate(2 2)"/>
</clipPath>
</defs>
</svg>
