<svg width="24" height="24" viewBox="0 0 24 24" fill="none" xmlns="http://www.w3.org/2000/svg">
<g clip-path="url(#clip0_180_2341)">
<path d="M11.4333 12.6071C10.7497 13.3529 9.96041 13.9934 9.09088 14.508C8.7083 14.7279 8.71873 14.9593 8.98664 15.2536C9.61211 15.949 10.37 16.147 11.2477 15.8684C11.8409 15.6809 12.4226 15.4578 13.0115 15.2557C13.1989 15.1869 13.3993 15.1615 13.5979 15.1812C13.7964 15.201 13.9879 15.2655 14.1582 15.3699C15.011 15.8684 15.8672 16.361 16.7268 16.8476C17.0927 17.057 17.3044 17.3346 17.0719 17.7388C16.8394 18.1431 16.4693 18.0687 16.1212 17.876C15.5906 17.5817 15.0673 17.2759 14.5366 16.9816C14.3803 16.8947 14.1812 16.7156 14.053 16.9754C13.9331 17.2183 14.1791 17.2969 14.3386 17.388C14.8598 17.6896 15.3883 17.9965 15.9241 18.2813C16.3046 18.4845 16.4725 18.7662 16.2932 19.1767C16.1399 19.5255 15.7886 19.5747 15.355 19.3328C14.6305 18.9264 13.907 18.5149 13.1804 18.1096C13.0115 18.0164 12.8072 17.7849 12.6456 18.0446C12.4486 18.3588 12.8166 18.4091 12.974 18.5065C13.5192 18.8437 14.0884 19.1411 14.6419 19.4648C15.0756 19.7182 15.2215 20.0858 15.0016 20.3989C14.7483 20.7592 14.4178 20.7131 14.0853 20.5131C13.564 20.1989 13.0543 19.8585 12.5216 19.5946C11.9389 19.3066 11.3655 19.0427 10.8057 18.694C10.4304 18.4594 9.99677 18.2866 9.59126 18.0373C9.10547 17.7378 8.63429 17.5137 8.25901 17.0361C7.98797 16.6947 7.49489 16.7146 7.11231 16.9722C6.83606 17.1576 6.74328 17.1105 6.69533 16.7984C6.68851 16.7369 6.6695 16.6774 6.63942 16.6235C6.60934 16.5695 6.5688 16.5221 6.5202 16.4842C5.97604 16.2004 6.22623 15.8558 6.39719 15.4798C6.80166 14.5949 7.18528 13.6995 7.56265 12.804C7.68879 12.5055 7.80554 12.3537 8.16206 12.5485C8.65618 12.8187 9.17637 12.6396 9.67987 12.5202C10.2605 12.3883 10.837 12.3024 11.4333 12.6071Z" fill="#045754"/>
<path d="M12.5698 11.8615C12.5698 11.3127 12.5698 10.8142 12.5698 10.3073C12.5698 10.123 12.5698 9.93132 12.3332 9.9177C12.0694 9.90199 12.0423 10.0989 12.0444 10.3094C12.0444 10.7964 12.0444 11.2844 12.0444 11.7756C12.0496 12.0898 12.009 12.2312 11.6274 12.0835C10.7122 11.7253 10.7049 11.7442 10.7393 10.7555C10.76 10.5118 10.7666 10.267 10.7591 10.0224C10.6757 8.99504 11.2021 8.3363 12.0934 8.02421C13.777 7.43459 15.4803 7.35814 17.143 8.1415C17.5872 8.35175 17.937 8.72118 18.124 9.17727C18.246 9.46004 18.2616 9.67473 17.8884 9.75118C17.5152 9.82764 17.1649 10.1701 16.7302 9.91875C16.6969 9.9146 16.663 9.91905 16.6318 9.9317C16.6006 9.94434 16.5731 9.96475 16.552 9.99101C16.3643 10.5618 15.8775 11.0561 16.1537 11.7473C16.3278 12.184 16.1694 12.3642 15.6919 12.3642C15.4053 12.3642 15.1593 12.2259 14.9039 12.1243C14.1689 11.8269 13.4236 11.5598 12.5698 11.8615Z" fill="#045754"/>
<path d="M12.0522 7.27328C11.7843 7.42723 11.5112 7.56966 11.2527 7.73513C10.5125 8.2106 10.1195 8.88715 10.106 9.77629C10.0935 10.3691 10.0705 10.9618 10.0768 11.5567C10.0768 11.8133 10.0111 11.9264 9.73904 11.9578C9.26264 12.0122 8.80083 12.2144 8.3088 12.0259C8.10031 11.9442 7.98043 11.8803 8.08467 11.5818C8.28378 11.0079 8.08467 10.4497 7.54885 10.2203C7.09956 10.0235 7.02763 9.7344 7.0735 9.32491C7.08165 9.20307 7.07886 9.08075 7.06515 8.95941C7.06828 8.89762 7.04687 8.83712 7.00563 8.79117C6.96439 8.74522 6.90669 8.71759 6.8452 8.71434C6.81043 8.70851 6.7748 8.71043 6.74085 8.71995C6.70689 8.72946 6.67542 8.74636 6.64868 8.76943C6.62193 8.7925 6.60056 8.8212 6.58606 8.85348C6.57157 8.88576 6.5643 8.92086 6.56478 8.95627C6.54706 9.19505 6.56478 9.43593 6.56478 9.72812C6.36724 9.63004 6.15007 9.57841 5.92973 9.57714C5.70938 9.57587 5.49164 9.62499 5.29299 9.72079C5.29299 9.24218 5.27005 8.7887 5.2982 8.33837C5.31407 8.05672 5.40718 7.78497 5.56725 7.55318C5.72731 7.3214 5.94808 7.13863 6.20513 7.02508C8.04193 6.16421 9.90583 6.12127 11.7604 6.99575C11.8854 7.05649 12.022 7.11305 12.0522 7.27328Z" fill="#045754"/>
<path d="M17.972 16.4367C17.9564 16.6682 17.5061 16.7991 17.2559 16.6524C16.3604 16.1288 15.4556 15.6177 14.5716 15.0752C13.9669 14.7045 13.3571 14.6176 12.6951 14.8658C12.1624 15.0669 11.6308 15.2774 11.0846 15.4345C10.5383 15.5915 9.98685 15.5549 9.52088 15.1444C9.35721 14.9998 9.31239 14.9024 9.54173 14.7652C10.3215 14.3002 10.9772 13.6803 11.6381 13.0644C12.4992 12.2622 13.4884 12.0947 14.5674 12.5785C15.1491 12.8382 15.7318 13.0466 16.3604 12.7545C16.5345 12.6738 16.5741 12.7817 16.6179 12.8969C17.0536 14.03 17.4883 15.1629 17.922 16.2953C17.9376 16.3487 17.9564 16.3969 17.972 16.4367Z" fill="#045754"/>
<path d="M9.05591 2C10.162 2 10.6665 2.49851 10.6832 3.6212C10.6926 4.27785 10.5623 4.90307 10.162 5.43405C9.5198 6.28025 8.44607 6.25302 7.85813 5.37121C7.3588 4.62135 7.26915 3.78353 7.49224 2.9258C7.65069 2.30371 8.2084 2.00105 9.05591 2Z" fill="#045754"/>
<path d="M12.877 4.91876C12.8854 4.32913 12.95 3.73951 13.5327 3.43475C14.177 3.09753 14.864 3.11324 15.528 3.40962C15.6774 3.4822 15.8068 3.59055 15.9048 3.72514C16.0027 3.85972 16.0663 4.01642 16.0899 4.18147C16.2473 4.96693 16.1941 5.73564 15.7834 6.44884C15.1809 7.50136 13.8861 7.50765 13.2742 6.45827C13 5.99296 12.8624 5.45928 12.877 4.91876Z" fill="#045754"/>
<path d="M9.60043 18.9379C9.3148 19.494 9.1084 20.1862 8.60594 20.7036C8.42142 20.8942 8.14517 20.8555 7.93251 20.6973C7.71985 20.5392 7.58225 20.2648 7.70838 20.0082C7.97525 19.4647 8.27652 18.9368 8.59551 18.4237C8.72582 18.2142 8.96871 18.2048 9.2043 18.2886C9.47013 18.3828 9.5702 18.586 9.60043 18.9379Z" fill="#045754"/>
<path d="M11.0613 19.7014C10.8069 20.1832 10.6328 20.7801 10.2033 21.2158C10.0105 21.4106 9.70608 21.3834 9.48925 21.1886C9.29118 21.0105 9.16088 20.8 9.32975 20.5047C9.55179 20.114 9.7384 19.7035 9.94793 19.3066C10.1106 18.9924 10.3972 18.9987 10.6703 19.0783C10.9278 19.1526 11.0394 19.3736 11.0613 19.7014Z" fill="#045754"/>
<path d="M8.26947 17.9615C8.04534 18.4433 7.82226 18.9931 7.39382 19.4047C7.21973 19.5722 6.96954 19.5094 6.76835 19.3628C6.53171 19.1858 6.4358 18.9313 6.54735 18.6716C6.72074 18.2754 6.92464 17.8933 7.15718 17.529C7.32293 17.2682 7.60126 17.2148 7.89315 17.3269C8.14646 17.4243 8.24966 17.6337 8.26947 17.9615Z" fill="#045754"/>
<path d="M12.4759 20.5317C12.3337 21.0274 12.0761 21.4819 11.7243 21.8576C11.5158 22.067 11.2468 22.0283 11.0154 21.8429C10.784 21.6575 10.7027 21.424 10.8382 21.1506C11.014 20.7932 11.1999 20.4409 11.3959 20.0939C11.452 19.9734 11.5516 19.8789 11.6745 19.8294C11.7975 19.78 11.9345 19.7795 12.0579 19.8279C12.3278 19.9159 12.4957 20.1034 12.4759 20.5317Z" fill="#045754"/>
<path d="M13.0266 20.4375C13.1694 20.5255 13.3195 20.6019 13.4529 20.7014C13.7657 20.9329 13.8282 21.3486 13.6041 21.6042C13.3799 21.8597 12.9306 21.8409 12.6565 21.6167C12.5231 21.5057 12.57 21.4293 12.6283 21.312C12.767 21.0344 12.8869 20.7485 13.0266 20.4375Z" fill="#045754"/>
<path d="M20.9507 16.2035C20.2481 14.3917 19.5483 12.5788 18.8512 10.7649C18.7564 10.5188 18.6198 10.3355 18.304 10.3345C18.2609 10.336 18.2182 10.3427 18.1768 10.3544C17.864 10.4675 17.5607 10.5816 17.2553 10.701C16.7173 10.9105 16.6298 11.1147 16.8456 11.6645C17.4752 13.3004 18.1031 14.9366 18.7293 16.5731C19.0608 17.4413 19.1796 17.4979 20.0605 17.1554C20.2581 17.0924 20.452 17.0179 20.6411 16.9324C20.9278 16.7784 21.0863 16.5543 20.9507 16.2035ZM18.0131 12.0374C17.7358 12.0447 17.5544 11.8939 17.5388 11.6048C17.5299 11.5441 17.5344 11.4821 17.552 11.4232C17.5696 11.3644 17.5999 11.3102 17.6407 11.2644C17.6814 11.2186 17.7317 11.1824 17.788 11.1584C17.8443 11.1343 17.9051 11.123 17.9662 11.1252C18.2529 11.1042 18.4051 11.2812 18.4468 11.5692C18.427 11.8321 18.305 12.029 18.0131 12.0374Z" fill="#045754"/>
<path d="M7.13152 10.7217C6.87925 10.6065 6.62906 10.4881 6.3747 10.3792C5.79093 10.1279 5.57514 10.2179 5.32078 10.7981C4.65987 12.3083 3.99478 13.8188 3.32553 15.3297C2.8043 16.4912 2.82411 16.5435 4 17.0347C4.74431 17.3489 4.88191 17.2881 5.21758 16.5236C5.90838 14.9492 6.59952 13.3748 7.29101 11.8004C7.36711 11.6276 7.43175 11.4485 7.46511 11.3637C7.487 10.9961 7.35877 10.8264 7.13152 10.7217ZM6.26003 11.9344C5.98795 11.8978 5.80239 11.7637 5.79301 11.4715C5.78363 11.1793 5.95563 11.016 6.23605 11.0013C6.29742 10.9928 6.3599 10.9981 6.41897 11.0168C6.47804 11.0356 6.53221 11.0673 6.57753 11.1097C6.62286 11.1522 6.6582 11.2042 6.681 11.2621C6.7038 11.32 6.71348 11.3822 6.70933 11.4443C6.71454 11.7145 6.54254 11.8925 6.26003 11.9365V11.9344Z" fill="#045754"/>
</g>
<defs>
<clipPath id="clip0_180_2341">
<rect width="18" height="20" fill="white" transform="translate(3 2)"/>
</clipPath>
</defs>
</svg>
