<svg width="24" height="24" viewBox="0 0 24 24" fill="none" xmlns="http://www.w3.org/2000/svg">
<g clip-path="url(#clip0_180_2330)">
<path d="M11.3982 14.9403H5.63023C4.96712 14.9403 4.6884 15.1203 4.68426 15.5447C4.68011 15.9691 4.97851 16.1771 5.61676 16.1782C7.65271 16.1782 9.68866 16.1854 11.7246 16.1709C11.8668 16.1594 12.0095 16.1856 12.1383 16.2468C12.2671 16.3081 12.3775 16.4022 12.4582 16.5197C12.7514 16.8996 13.114 17.2246 13.4528 17.5796C13.3368 17.7162 13.1721 17.6396 13.0322 17.6396C10.5296 17.6458 8.02743 17.6476 5.52558 17.6448C4.95365 17.6448 4.69048 17.8384 4.6884 18.2472C4.68633 18.656 4.96815 18.8837 5.51729 18.8837C8.58935 18.8837 11.6645 18.9728 14.7293 18.833C15.6774 18.7896 16.5021 19.3454 17.4232 19.0949C17.5061 19.0731 17.5268 19.1394 17.5569 19.2087C17.8335 19.9384 17.4439 21.1888 16.7943 21.6431C16.4541 21.8823 16.0467 22.0077 15.6307 22.0013C11.7484 21.9961 7.86615 22.0013 3.98385 21.9961C2.82341 21.9961 2.01524 21.2074 2.01524 20.0626C2.00695 16.0643 2.01524 12.066 2.00488 8.06761C2.00488 7.73433 2.08259 7.61841 2.43176 7.62669C3.46787 7.64842 4.50398 7.63704 5.54008 7.6329C6.91707 7.6329 7.6123 6.93839 7.61955 5.57628C7.61955 4.54125 7.63095 3.50621 7.61955 2.47117C7.61437 2.15342 7.6755 2.0199 8.034 2.023C10.588 2.03853 13.142 2.023 15.695 2.03542C16.7736 2.04163 17.532 2.82308 17.56 3.89849C17.56 3.93368 17.56 3.96783 17.56 4.00199C17.5538 4.29387 17.646 4.64785 17.5123 4.859C17.3787 5.07015 17.0098 4.88488 16.7425 4.91075C16.2441 4.95836 15.8773 5.22954 15.5354 5.55248C15.2733 5.80088 15.0371 6.07828 14.7635 6.31426C14.561 6.50276 14.3154 6.639 14.0482 6.71115C13.7809 6.78331 13.5001 6.78919 13.2301 6.72828C11.6925 6.40949 10.7279 7.21475 10.7258 8.79835C10.7258 9.51356 10.7258 9.51356 10.0254 9.51356H5.77735C5.65613 9.51356 5.53594 9.51356 5.41472 9.51356C5.00027 9.5208 4.68944 9.68538 4.68944 10.1398C4.68944 10.5941 4.99095 10.7546 5.41472 10.7535C6.95092 10.7494 8.48678 10.7494 10.0223 10.7535C10.8315 10.7535 10.7092 10.6676 10.7206 11.4273C10.7123 11.5307 10.7123 11.6345 10.7206 11.7379C10.788 12.1187 10.6533 12.2388 10.2533 12.2326C8.73544 12.2088 7.21754 12.2222 5.69446 12.2233C5.53954 12.2189 5.3845 12.2245 5.23029 12.2398C4.89977 12.2854 4.69255 12.4686 4.67908 12.8153C4.66457 13.189 4.87905 13.3867 5.22925 13.4436C5.38322 13.4623 5.53845 13.4685 5.69343 13.4622C7.28075 13.4622 8.86806 13.4746 10.4595 13.4539C10.8211 13.4539 10.9848 13.5523 11.0553 13.9114C11.1216 14.2468 11.2687 14.5614 11.3982 14.9403Z" fill="#045754"/>
<path d="M22.0012 10.4314C22.0012 11.5306 22.0571 12.6319 21.6841 13.699C20.9785 15.7194 19.6046 17.0546 17.5935 17.7595C17.1838 17.9005 16.738 17.8968 16.3305 17.7491C15.0881 17.338 14.0028 16.5544 13.2221 15.5051C12.4414 14.4557 12.0033 13.1915 11.9675 11.8846C11.9457 10.8175 11.9571 9.74933 11.9675 8.68117C11.9675 8.03738 12.2472 7.79829 12.8824 7.93077C14.0915 8.18125 15.0851 7.81899 15.9171 6.93921C16.919 5.87829 17.0361 5.84724 18.0557 6.93921C18.8845 7.82209 19.8813 8.18125 21.0883 7.93595C21.7338 7.80657 21.997 8.03945 22.0032 8.68014C22.0012 9.26079 22.0012 9.84145 22.0012 10.4314Z" fill="#045754"/>
<path d="M2.13379 6.39269C2.14104 6.17534 2.28402 6.1153 2.37313 6.02526C3.66412 4.72008 4.9634 3.41903 6.37147 2V5.3794C6.37147 6.29644 6.27822 6.39166 5.3737 6.39166L2.13379 6.39269Z" fill="#033B38"/>
<path d="M19.0995 10.9925C19.0995 11.2181 18.9855 11.3796 18.8332 11.5297C18.2115 12.1507 17.5899 12.7717 16.9682 13.3845C16.5921 13.756 16.2823 13.7602 15.9041 13.399C15.6171 13.1257 15.3415 12.8421 15.0628 12.5606C14.7841 12.279 14.7447 11.9696 14.9986 11.6839C15.2721 11.3734 15.6006 11.4096 15.9166 11.6622C16.4854 12.1176 16.4864 12.1155 17.0128 11.5897C17.3661 11.2378 17.7142 10.8807 18.0748 10.535C18.282 10.3332 18.541 10.3228 18.7949 10.4408C19.0228 10.5464 19.0995 10.7534 19.0995 10.9925Z" fill="#A0DAB6"/>
</g>
<defs>
<clipPath id="clip0_180_2330">
<rect width="20" height="20" fill="white" transform="translate(2 2)"/>
</clipPath>
</defs>
</svg>
