<svg width="24" height="24" viewBox="0 0 24 24" fill="none" xmlns="http://www.w3.org/2000/svg">
<g clip-path="url(#clip0_180_2388)">
<path d="M17.6795 18.4008C17.3542 18.4008 17.1675 18.4097 16.9831 18.4008C16.5661 18.3763 16.3303 18.144 16.3057 17.731C16.2811 17.3179 16.5292 17.0154 16.9104 16.9908C17.6899 16.9395 18.4718 16.9395 19.2513 16.9908C19.6649 17.0199 19.8762 17.3525 19.8739 17.7846C19.8739 18.3796 19.8661 18.9735 19.8739 19.5708C19.8806 20.0307 19.818 20.4527 19.2647 20.5309C18.6879 20.6124 18.4822 20.2373 18.3816 19.7025C17.111 20.7461 15.6051 21.465 13.9939 21.7969C7.93273 23.0494 2.01356 18.3305 1.99902 12.2317C1.99902 11.5987 2.21142 11.285 2.66304 11.2604C3.11467 11.2359 3.41538 11.6043 3.43774 12.2138C3.59312 16.4293 6.55327 19.8242 10.7274 20.4527C13.2773 20.8368 15.5757 20.1748 17.6795 18.4008Z" fill="#045754"/>
<path d="M6.36347 5.5689C6.64853 5.5689 6.83186 5.56108 7.01407 5.5689C7.43551 5.58788 7.66691 5.82678 7.69263 6.23203C7.71834 6.63728 7.46905 6.94875 7.08897 6.97442C6.30956 7.02633 5.52755 7.02633 4.74813 6.97442C4.33563 6.94651 4.12324 6.61606 4.12547 6.18179C4.12547 5.58788 4.1333 4.99284 4.12547 4.39558C4.11876 3.93675 4.17689 3.51252 4.73248 3.43437C5.30595 3.35399 5.52617 3.71794 5.61113 4.26608C6.58928 3.5181 7.60655 2.89181 8.76244 2.52117C14.3518 0.73496 19.9412 3.64649 21.6404 9.24626C21.8922 10.0831 22.014 10.9536 22.0015 11.8273C21.9959 12.3855 21.7354 12.7093 21.2961 12.7048C20.8769 12.7048 20.5706 12.3565 20.5661 11.8229C20.5494 9.8759 19.8954 8.16225 18.7026 6.63728C15.7682 2.87283 9.93733 2.32357 6.36347 5.5689Z" fill="#045754"/>
<path d="M16.6864 13.7543C17.5539 13.4584 17.7942 12.7886 17.7439 11.9524C17.7853 11.1297 17.5204 10.4944 16.6797 10.2109C16.3958 10.1149 16.559 9.9675 16.6194 9.82572C16.9391 9.07886 16.6372 8.52066 16.1118 7.98927C15.5529 7.43107 14.9805 7.00573 14.1544 7.3786C13.9532 7.46903 13.8638 7.50699 13.7464 7.25245C13.2691 6.21199 11.7051 5.86144 10.7505 6.54802C10.4296 6.77799 10.3782 7.27925 10.1189 7.40875C9.83717 7.5483 9.42914 7.16203 9.02223 7.24464C8.4074 7.36856 8.04632 7.82962 7.65618 8.2438C7.24256 8.68366 7.10842 9.20947 7.37 9.77883C7.48179 10.0144 7.52763 10.135 7.20792 10.2566C6.4377 10.5503 6.24542 11.1899 6.24318 11.9614C6.24095 12.7328 6.41869 13.406 7.21574 13.7174C7.47844 13.8201 7.50191 13.896 7.38566 14.1461C7.05029 14.884 7.36218 15.4489 7.88758 15.9792C8.44652 16.5374 9.01552 16.9672 9.84387 16.5899C10.044 16.4995 10.1513 16.4503 10.2485 16.7183C10.528 17.4941 11.1429 17.723 11.9198 17.7319C12.747 17.7409 13.4401 17.5734 13.7542 16.7105C13.8314 16.4983 13.9074 16.4682 14.1131 16.5687C14.8408 16.927 15.4187 16.6613 15.9598 16.131C16.55 15.5516 17.0151 14.9611 16.5869 14.087C16.5087 13.9273 16.4763 13.8257 16.6864 13.7543ZM11.998 14.1428C10.8511 14.1428 9.81705 13.0945 9.83829 11.9569C9.85953 10.8193 10.8723 9.82572 11.998 9.82683C13.1439 9.82683 14.179 10.8751 14.1578 12.0127C14.1365 13.1503 13.1159 14.1439 11.998 14.1428Z" fill="#045754"/>
<path d="M12.7354 11.9617C12.6761 12.3825 12.457 12.6549 12.0322 12.7029C11.6555 12.7454 11.2497 12.3546 11.2799 11.9751C11.3146 11.5519 11.5717 11.2773 11.9953 11.2706C12.419 11.2639 12.6471 11.5598 12.7354 11.9617Z" fill="#045754"/>
</g>
<defs>
<clipPath id="clip0_180_2388">
<rect width="20" height="20" fill="white" transform="translate(2 2)"/>
</clipPath>
</defs>
</svg>
