<svg width="24" height="24" viewBox="0 0 24 24" fill="none" xmlns="http://www.w3.org/2000/svg">
<path d="M21.75 19.5H21V12.6581C21.0004 12.6534 21.0004 12.6487 21 12.6441L19.5938 2.78813C19.541 2.42968 19.361 2.10221 19.0865 1.86566C18.8121 1.62911 18.4617 1.4993 18.0994 1.5H16.4006C16.0399 1.50155 15.6917 1.63237 15.4193 1.86871C15.1468 2.10506 14.9681 2.43127 14.9156 2.78813L13.8319 10.3734L10.2 7.65C10.0886 7.56643 9.95608 7.51554 9.81735 7.50303C9.67863 7.49053 9.53917 7.51689 9.41459 7.57918C9.29001 7.64147 9.18524 7.73722 9.11201 7.85571C9.03879 7.97419 9 8.11072 9 8.25V11.25L4.2 7.65C4.08857 7.56643 3.95608 7.51554 3.81735 7.50303C3.67863 7.49053 3.53917 7.51689 3.41459 7.57918C3.29001 7.64147 3.18524 7.73722 3.11201 7.85571C3.03879 7.97419 3 8.11072 3 8.25V19.5H2.25C2.05109 19.5 1.86032 19.579 1.71967 19.7197C1.57902 19.8603 1.5 20.0511 1.5 20.25C1.5 20.4489 1.57902 20.6397 1.71967 20.7803C1.86032 20.921 2.05109 21 2.25 21H21.75C21.9489 21 22.1397 20.921 22.2803 20.7803C22.421 20.6397 22.5 20.4489 22.5 20.25C22.5 20.0511 22.421 19.8603 22.2803 19.7197C22.1397 19.579 21.9489 19.5 21.75 19.5ZM10.125 17.25H7.5C7.30109 17.25 7.11032 17.171 6.96967 17.0303C6.82902 16.8897 6.75 16.6989 6.75 16.5C6.75 16.3011 6.82902 16.1103 6.96967 15.9697C7.11032 15.829 7.30109 15.75 7.5 15.75H10.125C10.3239 15.75 10.5147 15.829 10.6553 15.9697C10.796 16.1103 10.875 16.3011 10.875 16.5C10.875 16.6989 10.796 16.8897 10.6553 17.0303C10.5147 17.171 10.3239 17.25 10.125 17.25ZM16.5 17.25H13.875C13.6761 17.25 13.4853 17.171 13.3447 17.0303C13.204 16.8897 13.125 16.6989 13.125 16.5C13.125 16.3011 13.204 16.1103 13.3447 15.9697C13.4853 15.829 13.6761 15.75 13.875 15.75H16.5C16.6989 15.75 16.8897 15.829 17.0303 15.9697C17.171 16.1103 17.25 16.3011 17.25 16.5C17.25 16.6989 17.171 16.8897 17.0303 17.0303C16.8897 17.171 16.6989 17.25 16.5 17.25ZM16.0003 12L15.2006 11.4L16.4006 3H18.0994L19.3856 12H16.0003Z" fill="#F0F9F4"/>
</svg>
